<?xml version="1.0" encoding="UTF-8"?>
<svg id="Layer_1" xmlns="http://www.w3.org/2000/svg" version="1.1" viewBox="0 0 512 512">
  <!-- Generator: Adobe Illustrator 29.6.0, SVG Export Plug-In . SVG Version: 2.1.1 Build 207)  -->
  <defs>
    <style>
      .st0 {
        fill: #fff;
      }
    </style>
  </defs>
  <path class="st0" d="M321,152.1l-29.8,64h-119.4l-37.6,80.7h-33.7c.3-4,1.1-8,2.4-12,3.2-9.7,9.3-17.8,17-23.5,2,2.3,3.8,4.8,5.5,7.4.3.4.8.4.9,0l54.4-116.6h140.5Z"/>
  <path class="st0" d="M44.5,321.8c-3.4,6.8-8.3,12.6-14.2,17-4.9-5.7-8.9-12.4-11.4-20.1-1.7-5.1-2.6-10.3-2.9-15.4h33.5c-.4,6.3-2.1,12.6-5,18.4"/>
  <path class="st0" d="M71.7,303.4v55.8c-13.7-.8-26.7-6.4-36.7-15.6,6.4-5,11.7-11.3,15.4-18.8,3.4-6.8,5.3-14,5.8-21.4h15.5Z"/>
  <path class="st0" d="M47.2,284.8c1.3,3.9,2.1,8,2.4,12H16c.7-13.1,5.8-25.6,14.3-35.4,7.6,5.7,13.6,13.7,16.8,23.4Z"/>
  <path class="st0" d="M71.7,241v55.8h-15.6c-.3-4.7-1.2-9.5-2.7-14.1-3.6-10.7-10.2-19.6-18.5-26.1,6-5.6,13.2-9.9,21.5-12.7,5.1-1.7,10.2-2.6,15.3-2.9"/>
  <path class="st0" d="M93.8,296.8h-15.5v-55.8c13.7.7,26.8,6.3,36.8,15.5-8.6,6.6-15.1,15.7-18.6,26.2-1.5,4.6-2.4,9.3-2.7,14.1Z"/>
  <path class="st0" d="M115.1,343.7c-6,5.5-13.2,9.8-21.4,12.6-5.1,1.7-10.3,2.7-15.5,2.9v-55.8h15.5c.4,7.4,2.4,14.6,5.8,21.4,3.8,7.5,9.1,13.9,15.5,18.9"/>
  <path class="st0" d="M134.1,303.4c-.7,13.2-5.9,25.7-14.4,35.5-6-4.4-10.8-10.3-14.3-17.1-2.9-5.8-4.6-12.1-5.1-18.4h33.8Z"/>
  <path class="st0" d="M372.6,152.1l-23.8,50.9c-3.7,7.8-8,13.7-18.7,13.7h-7.5c-8.2,0-14.3-7-9.4-17.4l22-47.3h11.2l-25.2,54.2h14.8l25.2-54.2h11.2Z"/>
  <path class="st0" d="M406.9,161.8h-10.6l-25.3,54.3h-11.2l25.3-54.3h-12l4.9-9.7h33.8l-4.9,9.7Z"/>
  <path class="st0" d="M378.7,216.1l45.6-64h13.5l-13.8,64h-10.5l3.3-15h-15.5l-10.7,15h-11.9ZM418.9,191.2l4.9-22-15.5,22h10.5Z"/>
  <path class="st0" d="M429.5,216.1l29.8-64h11.3l-12.4,26.7h14.1l12.4-26.7h11.2l-29.8,64h-11.3l12.8-27.4h-14.1l-12.8,27.4h-11.2Z"/>
  <path class="st0" d="M372.6,152.1l-23.8,50.9c-3.7,7.8-8,13.7-18.7,13.7h-7.5c-8.2,0-14.3-7-9.4-17.4l22-47.3h11.2l-25.2,54.2h14.8l25.2-54.2h11.2Z"/>
  <path class="st0" d="M406.9,161.8h-10.6l-25.3,54.3h-11.2l25.3-54.3h-12l4.9-9.7h33.8l-4.9,9.7Z"/>
  <path class="st0" d="M378.7,216.1l45.6-64h13.5l-13.8,64h-10.5l3.3-15h-15.5l-10.7,15h-11.9ZM418.9,191.2l4.9-22-15.5,22h10.5Z"/>
  <path class="st0" d="M429.5,216.1l29.8-64h11.3l-12.4,26.7h14.1l12.4-26.7h11.2l-29.8,64h-11.3l12.8-27.4h-14.1l-12.8,27.4h-11.2Z"/>
  <path class="st0" d="M196.8,359.2h42.4s-15.4-128.5-15.4-128.5h-42.5l-59.9,128.5h21.4s14.1-30.3,14.1-30.3h36.3l3.6,30.3ZM165.9,309.6l19.9-42.6,5.1,42.6h-25Z"/>
  <path class="st0" d="M345.8,339.7h-45.1l50.8-109h-102.2l-9,19.4h55.7l-50.9,109.1h91.5l9.1-19.5Z"/>
  <path class="st0" d="M453.1,359.2l9-19.3h-52.9l50.2-109.1h-92l-9,19.4h46.7l-50.9,109.1h15.9s0,0,0,0h83Z"/>
</svg>